<?xml version="1.0" encoding="UTF-8" standalone="no"?>
<svg
   version="1.1"
   viewBox="-10 0 1000 800"
   width="1000"
   height="800"
   id="svg1"
   sodipodi:docname="citadel.svg"
   inkscape:version="1.4.2 (2aeb623e1d, 2025-05-12)"
   xmlns:inkscape="http://www.inkscape.org/namespaces/inkscape"
   xmlns:sodipodi="http://sodipodi.sourceforge.net/DTD/sodipodi-0.dtd"
   xmlns="http://www.w3.org/2000/svg"
   xmlns:svg="http://www.w3.org/2000/svg">
  <defs
     id="defs1" />
  <sodipodi:namedview
     id="namedview1"
     pagecolor="#ffffff"
     bordercolor="#000000"
     borderopacity="0.25"
     inkscape:showpageshadow="2"
     inkscape:pageopacity="0.0"
     inkscape:pagecheckerboard="0"
     inkscape:deskcolor="#d1d1d1"
     inkscape:zoom="0.73425463"
     inkscape:cx="693.22001"
     inkscape:cy="458.28788"
     inkscape:window-width="2494"
     inkscape:window-height="1371"
     inkscape:window-x="0"
     inkscape:window-y="0"
     inkscape:window-maximized="1"
     inkscape:current-layer="svg1" />
  <path
     fill="currentColor"
     d="m 260.45996,18.566951 c 21.97365,0 43.9473,0 65.92095,0 0,21.97364 0,43.94729 0,65.92094 21.97365,0 43.9473,0 65.92095,0 0,-21.97365 0,-43.9473 0,-65.92094 21.97365,0 43.9473,0 65.92095,0 0,21.97364 0,43.94729 0,65.92094 21.97365,0 43.9473,0 65.92095,0 0,-21.97365 0,-43.9473 0,-65.92094 21.97365,0 43.9473,0 65.92095,0 0,21.97364 0,43.94729 0,65.92094 21.97365,0 43.9473,0 65.92095,0 0,-21.97365 0,-43.9473 0,-65.92094 21.97365,0 43.9473,0 65.92095,0 -14.05215,146.074009 -21.37596,292.565969 -21.97365,439.472999 29.29747,0 58.59714,0 87.8946,0 0,-58.59713 0,-117.19207 0,-175.7892 21.97365,0 43.9473,0 65.92095,0 0,21.97365 0,43.9473 0,65.92095 21.97365,0 43.94731,0 65.92096,0 0,-21.97365 0,-43.9473 0,-65.92095 21.97365,0 43.9473,0 65.92095,0 0,168.46539 0,336.92857 0,505.39396 -139.16572,0 -278.33364,0 -417.49936,0 7.0887,-81.87382 -0.23732,-162.44461 -21.97365,-241.71016 -41.10611,-27.84061 -81.3926,-27.84061 -120.85508,0 -10.95606,80.23899 -14.61907,160.80977 -10.98682,241.71016 -139.16572,0 -278.33298,0 -417.4993607,0 0,-168.46539 0,-336.92857 0,-505.39396 21.9736497,0 43.9472997,0 65.9209507,0 0,21.97365 0,43.9473 0,65.92095 21.973655,0 43.9473,0 65.92095,0 0,-21.97365 0,-43.9473 0,-65.92095 21.97365,0 43.9473,0 65.92095,0 0,58.59713 0,117.19207 0,175.7892 29.29813,0 58.59714,0 87.89461,0 C 281.83592,311.13292 274.5121,164.64096 260.45996,18.566951 Z M 370.32821,238.30345 c 21.97365,0 43.9473,0 65.92095,0 0,36.62348 0,73.24477 0,109.86825 -21.97365,0 -43.9473,0 -65.92095,0 0,-36.62348 0,-73.24477 0,-109.86825 z m 175.7892,0 c 21.97365,0 43.9473,0 65.92095,0 0,36.62348 0,73.24477 0,109.86825 -21.97365,0 -43.9473,0 -65.92095,0 0,-36.62348 0,-73.24477 0,-109.86825 z M 62.6971,458.03995 c 21.973655,0 43.9473,0 65.92095,0 0,36.62349 0,73.24477 0,109.86825 -21.97365,0 -43.947295,0 -65.92095,0 0,-36.62348 0,-73.24476 0,-109.86825 z m 791.05141,0 c 21.97365,0 43.94731,0 65.92096,0 0,36.62349 0,73.24477 0,109.86825 -21.97365,0 -43.94731,0 -65.92096,0 0,-36.62348 0,-73.24476 0,-109.86825 z"
     id="path1" />
</svg>
