<?xml version="1.0" encoding="utf-8"?>
<!-- Generator: Adobe Illustrator 17.1.0, SVG Export Plug-In . SVG Version: 6.00 Build 0)  -->
<!DOCTYPE svg PUBLIC "-//W3C//DTD SVG 1.1//EN" "http://www.w3.org/Graphics/SVG/1.1/DTD/svg11.dtd">
<svg version="1.1"
	 id="svg1" xmlns:inkscape="http://www.inkscape.org/namespaces/inkscape" xmlns:sodipodi="http://sodipodi.sourceforge.net/DTD/sodipodi-0.dtd" xmlns:svg="http://www.w3.org/2000/svg" inkscape:version="1.3.2 (091e20ef0f, 2023-11-25, custom)" sodipodi:docname="skill.svg"
	 xmlns="http://www.w3.org/2000/svg" xmlns:xlink="http://www.w3.org/1999/xlink" x="0px" y="0px" viewBox="0 0 628.3 595.3"
	 enable-background="new 0 0 628.3 595.3" xml:space="preserve">
<polyline points="149.3,575.7 149.3,65.8 239.1,0 263.5,0 178.4,62.8 248.6,63.2 341.2,0 367.9,0.1 277.4,66.4 276.8,575.7 "/>
<polyline points="296,151.5 445.4,595.3 564.1,561.8 419,128.8 490.5,32.2 469.1,37.1 395.2,129.3 321.8,145.6 408.8,46.7 
	386.7,50.9 "/>
<polyline points="438.1,131.2 495.5,47.2 628.3,461.7 574.5,543.8 "/>
<polyline points="296,71.5 296,128.3 375.8,44 375.8,10 "/>
<polyline points="296,202.3 296,573.8 388.4,482.6 "/>
<polyline points="0,575.7 0,65.8 89.9,0 114.4,0 29.2,62.8 99.5,63.2 191.9,0 218.6,0.1 128.3,66.4 127.7,575.7 "/>
</svg>
